<svg width="68" height="95" viewBox="0 0 68 95" fill="none" xmlns="http://www.w3.org/2000/svg">
<rect y="0.927246" width="67.7149" height="93.6424" fill="#DCC089"/>
<rect y="5.92163" width="61.559" height="88.6481" fill="#F2DAA5"/>
<rect x="8.89185" y="13.4128" width="43.7753" height="9.36424" fill="#F8F4E9"/>
<rect x="8.89185" y="45.2512" width="43.7753" height="9.98852" fill="#F8F4E9"/>
<rect x="8.89185" y="77.7141" width="43.7753" height="9.36424" fill="#F8F4E9"/>
<rect x="8.89185" y="61.4827" width="43.7753" height="9.98852" fill="#F8F4E9"/>
<rect x="8.89185" y="29.02" width="43.7753" height="9.98852" fill="#F8F4E9"/>
<rect x="11.6278" y="13.4128" width="3.41995" height="9.36424" fill="#DE7E7E"/>
<rect x="49.2472" y="77.7141" width="3.41995" height="9.36424" fill="#3FD3E7"/>
<rect x="24.6237" y="77.7141" width="3.41995" height="9.36424" fill="#CFAE00"/>
<rect x="36.2514" y="61.4827" width="4.10394" height="9.98852" fill="#49D6A3"/>
<rect x="41.7233" y="61.4827" width="3.41995" height="9.98852" fill="#C51957"/>
<rect x="29.4116" y="45.2512" width="4.10394" height="9.98852" fill="#560863"/>
<rect x="25.9916" y="45.2512" width="2.73596" height="9.98852" fill="#5261EA"/>
<rect x="10.2598" y="45.2512" width="4.10394" height="9.98852" fill="#CB29A7"/>
<rect x="27.3596" y="29.02" width="2.73596" height="9.98852" fill="#F2960C"/>
<rect x="22.5717" y="29.02" width="2.73596" height="9.98852" fill="#AA3434"/>
<rect x="17.0997" y="29.02" width="4.10394" height="9.98852" fill="#095B47"/>
<rect x="44.4594" y="13.4128" width="4.10394" height="9.36424" fill="#8055B7"/>
<rect x="16.4157" y="13.4128" width="2.73596" height="9.36424" fill="#50A926"/>
</svg>
